<svg xmlns="http://www.w3.org/2000/svg" width="53" height="53" viewBox="0 0 53 53" fill="none">
  <circle cx="26.5" cy="26.5" r="26.5" fill="white"/>
  <path d="M36.9831 35.7553C36.9831 36.1362 36.8318 36.5015 36.5624 36.7708C36.2931 37.0402 35.9278 37.1915 35.5469 37.1915C35.166 37.1915 34.8007 37.0402 34.5314 36.7708C34.262 36.5015 34.1107 36.1362 34.1107 35.7553V20.9045L17.4152 37.6C17.143 37.8537 16.7829 37.9918 16.4108 37.9852C16.0388 37.9787 15.6838 37.8279 15.4206 37.5648C15.1575 37.3017 15.0068 36.9467 15.0002 36.5746C14.9937 36.2026 15.1318 35.8425 15.3855 35.5702L32.0785 18.8723H17.2277C16.8468 18.8723 16.4815 18.721 16.2122 18.4517C15.9429 18.1824 15.7916 17.8171 15.7916 17.4362C15.7916 17.0553 15.9429 16.69 16.2122 16.4206C16.4815 16.1513 16.8468 16 17.2277 16H35.5469C35.9278 16 36.2931 16.1513 36.5624 16.4206C36.8318 16.69 36.9831 17.0553 36.9831 17.4362V35.7553Z" fill="#EDEEF5"/>
  <path d="M36.9831 35.7553C36.9831 36.1362 36.8318 36.5015 36.5624 36.7708C36.2931 37.0402 35.9278 37.1915 35.5469 37.1915C35.166 37.1915 34.8007 37.0402 34.5314 36.7708C34.262 36.5015 34.1107 36.1362 34.1107 35.7553V20.9045L17.4152 37.6C17.143 37.8537 16.7829 37.9918 16.4108 37.9852C16.0388 37.9787 15.6838 37.8279 15.4206 37.5648C15.1575 37.3017 15.0068 36.9467 15.0002 36.5746C14.9937 36.2026 15.1318 35.8425 15.3855 35.5702L32.0785 18.8723H17.2277C16.8468 18.8723 16.4815 18.721 16.2122 18.4517C15.9429 18.1824 15.7916 17.8171 15.7916 17.4362C15.7916 17.0553 15.9429 16.69 16.2122 16.4206C16.4815 16.1513 16.8468 16 17.2277 16H35.5469C35.9278 16 36.2931 16.1513 36.5624 16.4206C36.8318 16.69 36.9831 17.0553 36.9831 17.4362V35.7553Z" fill="#EDEEF5" style="mix-blend-mode:multiply"/>
</svg>